<?xml version="1.0" standalone="no"?>
<!DOCTYPE svg PUBLIC "-//W3C//DTD SVG 20010904//EN"
 "http://www.w3.org/TR/2001/REC-SVG-20010904/DTD/svg10.dtd">
<svg version="1.0" xmlns="http://www.w3.org/2000/svg"
 width="91.000000pt" height="91.000000pt" viewBox="0 0 91.000000 91.000000"
 preserveAspectRatio="xMidYMid meet">
<metadata>
Created by potrace 1.14, written by Peter Selinger 2001-2017
</metadata>
<g transform="translate(0.000000,91.000000) scale(0.100000,-0.100000)"
fill="#000000" stroke="none">
<path d="M330 740 c-10 -6 -8 -15 7 -36 11 -16 57 -95 103 -176 l83 -148 44 0
c23 0 43 3 43 6 0 8 -60 117 -121 222 -27 45 -48 83 -47 85 2 1 -5 12 -13 25
-17 24 -75 37 -99 22z"/>
<path d="M464 698 c-3 -5 13 -40 35 -78 23 -38 41 -73 41 -79 0 -6 4 -11 8
-11 4 0 26 -34 47 -75 l40 -75 48 0 47 0 -24 48 c-14 26 -56 99 -93 162 -67
113 -68 114 -106 115 -21 1 -40 -2 -43 -7z"/>
<path d="M215 430 c-75 -122 -139 -229 -142 -240 -5 -17 0 -19 42 -17 l48 2
78 125 c44 69 97 153 119 187 22 35 40 70 40 79 0 15 -37 84 -45 84 -1 0 -64
-99 -140 -220z"/>
<path d="M298 362 c-60 -93 -108 -173 -108 -179 0 -6 18 -11 40 -11 l41 -1 83
127 c113 174 110 166 91 202 -9 16 -21 30 -28 30 -6 0 -60 -76 -119 -168z"/>
<path d="M394 325 c-14 -19 -23 -38 -20 -43 3 -5 108 -9 233 -9 l229 -1 22 39
c12 21 22 40 22 42 0 3 -104 5 -230 5 l-230 1 -26 -34z"/>
<path d="M351 250 c-13 -9 -41 -54 -41 -66 0 -7 56 -10 186 -10 l187 1 23 34
c13 19 22 37 19 39 -6 6 -366 8 -374 2z"/>
</g>
</svg>
